<?xml version="1.0" encoding="UTF-8"?> <svg xmlns="http://www.w3.org/2000/svg" width="1920" height="1080"><path d="M854,739L897,522L624,669Z" fill="#70827e" stroke="#70827e" stroke-width="1.51"></path><path d="M897,522L706,345L624,669Z" fill="#7d7d7d" stroke="#7d7d7d" stroke-width="1.51"></path><path d="M854,739L1272,804L897,522Z" fill="#55746e" stroke="#55746e" stroke-width="1.51"></path><path d="M700,1065L944,942L854,739Z" fill="#68928a" stroke="#68928a" stroke-width="1.51"></path><path d="M624,669L498,875L854,739Z" fill="#8ab4ac" stroke="#8ab4ac" stroke-width="1.51"></path><path d="M391,659L498,875L624,669Z" fill="#a5cbc3" stroke="#a5cbc3" stroke-width="1.51"></path><path d="M706,345L391,659L624,669Z" fill="#939695" stroke="#939695" stroke-width="1.51"></path><path d="M706,345L297,359L391,659Z" fill="#c0bebc" stroke="#c0bebc" stroke-width="1.51"></path><path d="M897,522L818,172L706,345Z" fill="#a6a6a6" stroke="#a6a6a6" stroke-width="1.51"></path><path d="M498,875L700,1065L854,739Z" fill="#83b0a7" stroke="#83b0a7" stroke-width="1.51"></path><path d="M818,172L448,206L706,345Z" fill="#dcd5d0" stroke="#dcd5d0" stroke-width="1.51"></path><path d="M448,206L297,359L706,345Z" fill="#f3f3f3" stroke="#f3f3f3" stroke-width="1.51"></path><path d="M944,942L1272,804L854,739Z" fill="#538d83" stroke="#538d83" stroke-width="1.51"></path><path d="M897,522L935,79L818,172Z" fill="#b1aeac" stroke="#b1aeac" stroke-width="1.51"></path><path d="M1213,971L1272,804L944,942Z" fill="#509287" stroke="#509287" stroke-width="1.51"></path><path d="M700,1065L846,1158L944,942Z" fill="#64827c" stroke="#64827c" stroke-width="1.51"></path><path d="M1249,200L935,79L897,522Z" fill="#a5aba9" stroke="#a5aba9" stroke-width="1.51"></path><path d="M818,172L641,-112L448,206Z" fill="#e0b797" stroke="#e0b797" stroke-width="1.51"></path><path d="M498,875L558,1140L700,1065Z" fill="#91b2ab" stroke="#91b2ab" stroke-width="1.51"></path><path d="M700,1065L558,1140L846,1158Z" fill="#7a9690" stroke="#7a9690" stroke-width="1.51"></path><path d="M424,1109L558,1140L498,875Z" fill="#a1c1bb" stroke="#a1c1bb" stroke-width="1.51"></path><path d="M846,1158L1213,971L944,942Z" fill="#50736d" stroke="#50736d" stroke-width="1.51"></path><path d="M1272,804L1315,373L897,522Z" fill="#546d68" stroke="#546d68" stroke-width="1.51"></path><path d="M238,952L498,875L391,659Z" fill="#aed2bd" stroke="#aed2bd" stroke-width="1.51"></path><path d="M238,952L424,1109L498,875Z" fill="#a8c0af" stroke="#a8c0af" stroke-width="1.51"></path><path d="M935,79L834,-14L818,172Z" fill="#b48c6b" stroke="#b48c6b" stroke-width="1.51"></path><path d="M1133,-38L834,-14L935,79Z" fill="#9d6d42" stroke="#9d6d42" stroke-width="1.51"></path><path d="M113,772L238,952L391,659Z" fill="#b2c19f" stroke="#b2c19f" stroke-width="1.51"></path><path d="M1315,373L1249,200L897,522Z" fill="#899d98" stroke="#899d98" stroke-width="1.51"></path><path d="M9,587L113,772L391,659Z" fill="#ab9c78" stroke="#ab9c78" stroke-width="1.51"></path><path d="M1272,804L1445,736L1315,373Z" fill="#549186" stroke="#549186" stroke-width="1.51"></path><path d="M1558,832L1445,736L1272,804Z" fill="#47bcab" stroke="#47bcab" stroke-width="1.51"></path><path d="M297,359L9,587L391,659Z" fill="#a5876f" stroke="#a5876f" stroke-width="1.51"></path><path d="M448,206L169,235L297,359Z" fill="#ffe7d4" stroke="#ffe7d4" stroke-width="1.51"></path><path d="M474,-173L169,235L448,206Z" fill="#fcc699" stroke="#fcc699" stroke-width="1.51"></path><path d="M834,-14L641,-112L818,172Z" fill="#c39064" stroke="#c39064" stroke-width="1.51"></path><path d="M1249,200L1133,-38L935,79Z" fill="#a78d69" stroke="#a78d69" stroke-width="1.51"></path><path d="M1043,-488L621,-508L641,-112Z" fill="#c28c5e" stroke="#c28c5e" stroke-width="1.51"></path><path d="M169,235L43,423L297,359Z" fill="#e7bfa0" stroke="#e7bfa0" stroke-width="1.51"></path><path d="M43,423L9,587L297,359Z" fill="#bc926f" stroke="#bc926f" stroke-width="1.51"></path><path d="M1315,373L1483,331L1249,200Z" fill="#a0cbc2" stroke="#a0cbc2" stroke-width="1.51"></path><path d="M1249,200L1435,77L1133,-38Z" fill="#aea27a" stroke="#aea27a" stroke-width="1.51"></path><path d="M1445,736L1483,331L1315,373Z" fill="#67988f" stroke="#67988f" stroke-width="1.51"></path><path d="M846,1158L1046,1381L1213,971Z" fill="#4e716a" stroke="#4e716a" stroke-width="1.51"></path><path d="M1213,971L1558,832L1272,804Z" fill="#49b0a0" stroke="#49b0a0" stroke-width="1.51"></path><path d="M558,1140L801,1410L846,1158Z" fill="#74908a" stroke="#74908a" stroke-width="1.51"></path><path d="M431,1546L801,1410L558,1140Z" fill="#8ca9a3" stroke="#8ca9a3" stroke-width="1.51"></path><path d="M801,1410L1046,1381L846,1158Z" fill="#58736e" stroke="#58736e" stroke-width="1.51"></path><path d="M1445,736L1766,493L1483,331Z" fill="#59867e" stroke="#59867e" stroke-width="1.51"></path><path d="M1374,1329L1558,832L1213,971Z" fill="#499f91" stroke="#499f91" stroke-width="1.51"></path><path d="M311,-298L474,-173L621,-508Z" fill="#fbc08e" stroke="#fbc08e" stroke-width="1.51"></path><path d="M641,-112L474,-173L448,206Z" fill="#f3b989" stroke="#f3b989" stroke-width="1.51"></path><path d="M1483,331L1435,77L1249,200Z" fill="#afccb6" stroke="#afccb6" stroke-width="1.51"></path><path d="M1046,1381L1266,1303L1213,971Z" fill="#4d8278" stroke="#4d8278" stroke-width="1.51"></path><path d="M1209,1469L1374,1329L1266,1303Z" fill="#4b8e83" stroke="#4b8e83" stroke-width="1.51"></path><path d="M1266,1303L1374,1329L1213,971Z" fill="#4b8e83" stroke="#4b8e83" stroke-width="1.51"></path><path d="M43,423L-160,375L9,587Z" fill="#b78355" stroke="#b78355" stroke-width="1.51"></path><path d="M-184,1017L238,952L113,772Z" fill="#ada06d" stroke="#ada06d" stroke-width="1.51"></path><path d="M-169,212L-160,375L43,423Z" fill="#e3ab7b" stroke="#e3ab7b" stroke-width="1.51"></path><path d="M-169,212L43,423L169,235Z" fill="#f5bc8d" stroke="#f5bc8d" stroke-width="1.51"></path><path d="M1046,1381L1209,1469L1266,1303Z" fill="#4d8278" stroke="#4d8278" stroke-width="1.51"></path><path d="M949,1764L1209,1469L1046,1381Z" fill="#4e756d" stroke="#4e756d" stroke-width="1.51"></path><path d="M424,1109L431,1546L558,1140Z" fill="#a2beb7" stroke="#a2beb7" stroke-width="1.51"></path><path d="M801,1410L949,1764L1046,1381Z" fill="#526d68" stroke="#526d68" stroke-width="1.51"></path><path d="M238,952L115,1340L424,1109Z" fill="#a6a488" stroke="#a6a488" stroke-width="1.51"></path><path d="M-184,1017L115,1340L238,952Z" fill="#a48c5c" stroke="#a48c5c" stroke-width="1.51"></path><path d="M-184,1017L113,772L-340,788Z" fill="#afa166" stroke="#afa166" stroke-width="1.51"></path><path d="M115,1340L138,1372L424,1109Z" fill="#a6a080" stroke="#a6a080" stroke-width="1.51"></path><path d="M1804,582L1766,493L1445,736Z" fill="#51867c" stroke="#51867c" stroke-width="1.51"></path><path d="M1483,331L1764,139L1435,77Z" fill="#aec5ab" stroke="#aec5ab" stroke-width="1.51"></path><path d="M1739,1301L1738,828L1558,832Z" fill="#479c8e" stroke="#479c8e" stroke-width="1.51"></path><path d="M138,1372L431,1546L424,1109Z" fill="#a5ac97" stroke="#a5ac97" stroke-width="1.51"></path><path d="M1804,582L1445,736L1558,832Z" fill="#4da394" stroke="#4da394" stroke-width="1.51"></path><path d="M1435,77L1499,-87L1133,-38Z" fill="#af9c63" stroke="#af9c63" stroke-width="1.51"></path><path d="M621,-508L474,-173L641,-112Z" fill="#e7ae7e" stroke="#e7ae7e" stroke-width="1.51"></path><path d="M1764,139L1499,-87L1435,77Z" fill="#afa775" stroke="#afa775" stroke-width="1.51"></path><path d="M474,-173L178,-252L169,235Z" fill="#f3a761" stroke="#f3a761" stroke-width="1.51"></path><path d="M641,-112L834,-14L1043,-488Z" fill="#b37f51" stroke="#b37f51" stroke-width="1.51"></path><path d="M-9,-173L-169,212L169,235Z" fill="#ee9948" stroke="#ee9948" stroke-width="1.51"></path><path d="M-340,788L9,587L-160,375Z" fill="#a07444" stroke="#a07444" stroke-width="1.51"></path><path d="M-340,788L113,772L9,587Z" fill="#ab915b" stroke="#ab915b" stroke-width="1.51"></path><path d="M115,1340L-151,1315L138,1372Z" fill="#a38958" stroke="#a38958" stroke-width="1.51"></path><path d="M1738,828L1804,582L1558,832Z" fill="#4ba395" stroke="#4ba395" stroke-width="1.51"></path><path d="M311,-298L178,-252L474,-173Z" fill="#f5ad6c" stroke="#f5ad6c" stroke-width="1.51"></path><path d="M2142,364L1764,139L1766,493Z" fill="#8eaca6" stroke="#8eaca6" stroke-width="1.51"></path><path d="M1766,493L1764,139L1483,331Z" fill="#96bfb7" stroke="#96bfb7" stroke-width="1.51"></path><path d="M178,-252L-9,-173L169,235Z" fill="#eb933b" stroke="#eb933b" stroke-width="1.51"></path><path d="M-169,212L-300,333L-160,375Z" fill="#eeb584" stroke="#eeb584" stroke-width="1.51"></path><path d="M-311,239L-300,333L-169,212Z" fill="#fbbf8d" stroke="#fbbf8d" stroke-width="1.51"></path><path d="M311,-298L109,-290L178,-252Z" fill="#f09e50" stroke="#f09e50" stroke-width="1.51"></path><path d="M178,-252L109,-290L-9,-173Z" fill="#ea9036" stroke="#ea9036" stroke-width="1.51"></path><path d="M-300,333L-340,788L-160,375Z" fill="#aa7749" stroke="#aa7749" stroke-width="1.51"></path><path d="M1043,-488L834,-14L1133,-38Z" fill="#9e7042" stroke="#9e7042" stroke-width="1.51"></path><path d="M311,-298L-97,-469L109,-290Z" fill="#ea923a" stroke="#ea923a" stroke-width="1.51"></path><path d="M1292,-443L1043,-488L1133,-38Z" fill="#a68350" stroke="#a68350" stroke-width="1.51"></path><path d="M1292,-443L1133,-38L1499,-87Z" fill="#ad965e" stroke="#ad965e" stroke-width="1.51"></path><path d="M1374,1329L1739,1301L1558,832Z" fill="#47998c" stroke="#47998c" stroke-width="1.51"></path><path d="M1209,1469L1575,1409L1374,1329Z" fill="#499b8e" stroke="#499b8e" stroke-width="1.51"></path><path d="M-300,333L-401,882L-340,788Z" fill="#a78753" stroke="#a78753" stroke-width="1.51"></path><path d="M-264,-76L-311,239L-169,212Z" fill="#f1a056" stroke="#f1a056" stroke-width="1.51"></path><path d="M87,1775L469,1763L431,1546Z" fill="#a5ac97" stroke="#a5ac97" stroke-width="1.51"></path><path d="M-184,1017L-151,1315L115,1340Z" fill="#a28550" stroke="#a28550" stroke-width="1.51"></path><path d="M-321,1335L-151,1315L-184,1017Z" fill="#a28550" stroke="#a28550" stroke-width="1.51"></path><path d="M599,1797L801,1410L431,1546Z" fill="#8aa6a0" stroke="#8aa6a0" stroke-width="1.51"></path><path d="M599,1797L949,1764L801,1410Z" fill="#6c8781" stroke="#6c8781" stroke-width="1.51"></path><path d="M1209,1469L1354,1759L1575,1409Z" fill="#499a8d" stroke="#499a8d" stroke-width="1.51"></path><path d="M1510,-428L1292,-443L1499,-87Z" fill="#b2a66b" stroke="#b2a66b" stroke-width="1.51"></path><path d="M1738,828L1954,684L1804,582Z" fill="#4d9084" stroke="#4d9084" stroke-width="1.51"></path><path d="M1804,582L2142,364L1766,493Z" fill="#607c76" stroke="#607c76" stroke-width="1.51"></path><path d="M1965,1009L1954,684L1738,828Z" fill="#46a092" stroke="#46a092" stroke-width="1.51"></path><path d="M87,1775L431,1546L138,1372Z" fill="#a69f7f" stroke="#a69f7f" stroke-width="1.51"></path><path d="M1575,1409L1739,1301L1374,1329Z" fill="#47998c" stroke="#47998c" stroke-width="1.51"></path><path d="M469,1763L599,1797L431,1546Z" fill="#9ebbb5" stroke="#9ebbb5" stroke-width="1.51"></path><path d="M-340,788L-401,882L-184,1017Z" fill="#ad9c62" stroke="#ad9c62" stroke-width="1.51"></path><path d="M-311,239L-401,882L-300,333Z" fill="#af7b4e" stroke="#af7b4e" stroke-width="1.51"></path><path d="M1764,139L1780,-59L1499,-87Z" fill="#aa965e" stroke="#aa965e" stroke-width="1.51"></path><path d="M2145,66L1780,-59L1764,139Z" fill="#a59164" stroke="#a59164" stroke-width="1.51"></path><path d="M-352,-398L-264,-76L-9,-173Z" fill="#e4851b" stroke="#e4851b" stroke-width="1.51"></path><path d="M-9,-173L-264,-76L-169,212Z" fill="#e4851b" stroke="#e4851b" stroke-width="1.51"></path><path d="M1739,1301L1965,1009L1738,828Z" fill="#478c80" stroke="#478c80" stroke-width="1.51"></path><path d="M1292,-443L1652,-485L1043,-488Z" fill="#ae9960" stroke="#ae9960" stroke-width="1.51"></path><path d="M1780,-59L1510,-428L1499,-87Z" fill="#ad9c62" stroke="#ad9c62" stroke-width="1.51"></path><path d="M599,1797L1354,1759L949,1764Z" fill="#4e6964" stroke="#4e6964" stroke-width="1.51"></path><path d="M949,1764L1354,1759L1209,1469Z" fill="#4d8177" stroke="#4d8177" stroke-width="1.51"></path><path d="M1575,1409L1835,1443L1739,1301Z" fill="#478e83" stroke="#478e83" stroke-width="1.51"></path><path d="M-401,882L-321,1335L-184,1017Z" fill="#a28550" stroke="#a28550" stroke-width="1.51"></path><path d="M-249,1613L87,1775L138,1372Z" fill="#a28550" stroke="#a28550" stroke-width="1.51"></path><path d="M469,1763L-118,1867L599,1797Z" fill="#a5ab95" stroke="#a5ab95" stroke-width="1.51"></path><path d="M-249,1613L138,1372L-151,1315Z" fill="#a28550" stroke="#a28550" stroke-width="1.51"></path><path d="M1696,1647L1835,1443L1575,1409Z" fill="#478f83" stroke="#478f83" stroke-width="1.51"></path><path d="M1739,1301L2050,1142L1965,1009Z" fill="#468177" stroke="#468177" stroke-width="1.51"></path><path d="M109,-290L-97,-469L-9,-173Z" fill="#e4851c" stroke="#e4851c" stroke-width="1.51"></path><path d="M621,-508L-97,-469L311,-298Z" fill="#f3a862" stroke="#f3a862" stroke-width="1.51"></path><path d="M1354,1759L1574,1739L1575,1409Z" fill="#479d90" stroke="#479d90" stroke-width="1.51"></path><path d="M1965,1009L2343,803L1954,684Z" fill="#479f91" stroke="#479f91" stroke-width="1.51"></path><path d="M1835,1443L2050,1142L1739,1301Z" fill="#468479" stroke="#468479" stroke-width="1.51"></path><path d="M2305,1070L1965,1009L2050,1142Z" fill="#468177" stroke="#468177" stroke-width="1.51"></path><path d="M1574,1739L1696,1647L1575,1409Z" fill="#479589" stroke="#479589" stroke-width="1.51"></path><path d="M1780,-59L1652,-485L1510,-428Z" fill="#ab985f" stroke="#ab985f" stroke-width="1.51"></path><path d="M1954,684L2142,364L1804,582Z" fill="#4e6964" stroke="#4e6964" stroke-width="1.51"></path><path d="M2182,334L2142,364L2343,803Z" fill="#59746f" stroke="#59746f" stroke-width="1.51"></path><path d="M1510,-428L1652,-485L1292,-443Z" fill="#b1a469" stroke="#b1a469" stroke-width="1.51"></path><path d="M1043,-488L1652,-485L621,-508Z" fill="#a37c4b" stroke="#a37c4b" stroke-width="1.51"></path><path d="M1996,-250L1652,-485L1780,-59Z" fill="#a68d57" stroke="#a68d57" stroke-width="1.51"></path><path d="M-321,1335L-249,1613L-151,1315Z" fill="#a28550" stroke="#a28550" stroke-width="1.51"></path><path d="M2142,364L2145,66L1764,139Z" fill="#a5ad99" stroke="#a5ad99" stroke-width="1.51"></path><path d="M2343,803L2142,364L1954,684Z" fill="#4e7870" stroke="#4e7870" stroke-width="1.51"></path><path d="M2182,334L2145,66L2142,364Z" fill="#a2bbb2" stroke="#a2bbb2" stroke-width="1.51"></path><path d="M2145,66L1996,-250L1780,-59Z" fill="#a28550" stroke="#a28550" stroke-width="1.51"></path><path d="M-401,882L-456,1480L-321,1335Z" fill="#a28550" stroke="#a28550" stroke-width="1.51"></path><path d="M-321,1335L-456,1480L-249,1613Z" fill="#a28550" stroke="#a28550" stroke-width="1.51"></path><path d="M-97,-469L-352,-398L-9,-173Z" fill="#e4851b" stroke="#e4851b" stroke-width="1.51"></path><path d="M-264,-76L-352,-398L-311,239Z" fill="#e4851b" stroke="#e4851b" stroke-width="1.51"></path><path d="M-311,239L-352,-398L-401,882Z" fill="#f9ba85" stroke="#f9ba85" stroke-width="1.51"></path><path d="M-401,882L-352,-398L-456,1480Z" fill="#a68450" stroke="#a68450" stroke-width="1.51"></path><path d="M2145,66L2186,-132L1996,-250Z" fill="#a28550" stroke="#a28550" stroke-width="1.51"></path><path d="M2182,334L2239,184L2145,66Z" fill="#a5ae9b" stroke="#a5ae9b" stroke-width="1.51"></path><path d="M2343,803L2239,184L2182,334Z" fill="#6c8781" stroke="#6c8781" stroke-width="1.51"></path><path d="M-432,1726L-118,1867L-249,1613Z" fill="#a28550" stroke="#a28550" stroke-width="1.51"></path><path d="M-249,1613L-118,1867L87,1775Z" fill="#a28550" stroke="#a28550" stroke-width="1.51"></path><path d="M87,1775L-118,1867L469,1763Z" fill="#a59670" stroke="#a59670" stroke-width="1.51"></path><path d="M599,1797L2088,1807L1354,1759Z" fill="#4a9689" stroke="#4a9689" stroke-width="1.51"></path><path d="M2305,1070L2343,803L1965,1009Z" fill="#478f83" stroke="#478f83" stroke-width="1.51"></path><path d="M2017,1604L2050,1142L1835,1443Z" fill="#468177" stroke="#468177" stroke-width="1.51"></path><path d="M1696,1647L2017,1604L1835,1443Z" fill="#47857b" stroke="#47857b" stroke-width="1.51"></path><path d="M2088,1807L2017,1604L1696,1647Z" fill="#468177" stroke="#468177" stroke-width="1.51"></path><path d="M2239,184L2186,-132L2145,66Z" fill="#a48d5f" stroke="#a48d5f" stroke-width="1.51"></path><path d="M1996,-250L2095,-363L1652,-485Z" fill="#a28651" stroke="#a28651" stroke-width="1.51"></path><path d="M2222,-319L2186,-132L2239,184Z" fill="#a28550" stroke="#a28550" stroke-width="1.51"></path><path d="M2395,1264L2305,1070L2050,1142Z" fill="#468177" stroke="#468177" stroke-width="1.51"></path><path d="M-456,1480L-432,1726L-249,1613Z" fill="#a28550" stroke="#a28550" stroke-width="1.51"></path><path d="M2186,-132L2095,-363L1996,-250Z" fill="#a28550" stroke="#a28550" stroke-width="1.51"></path><path d="M2186,-132L2222,-319L2095,-363Z" fill="#a28550" stroke="#a28550" stroke-width="1.51"></path><path d="M2343,803L2222,-319L2239,184Z" fill="#a3b4a6" stroke="#a3b4a6" stroke-width="1.51"></path><path d="M2343,803L2428,1405L2222,-319Z" fill="#4e7b72" stroke="#4e7b72" stroke-width="1.51"></path><path d="M2305,1070L2395,1264L2343,803Z" fill="#47857a" stroke="#47857a" stroke-width="1.51"></path><path d="M2017,1604L2395,1264L2050,1142Z" fill="#468177" stroke="#468177" stroke-width="1.51"></path><path d="M2017,1604L2428,1405L2395,1264Z" fill="#468177" stroke="#468177" stroke-width="1.51"></path><path d="M1574,1739L2088,1807L1696,1647Z" fill="#478a7e" stroke="#478a7e" stroke-width="1.51"></path><path d="M1354,1759L2088,1807L1574,1739Z" fill="#479285" stroke="#479285" stroke-width="1.51"></path><path d="M-118,1867L2088,1807L599,1797Z" fill="#5f7a75" stroke="#5f7a75" stroke-width="1.51"></path><path d="M2395,1264L2428,1405L2343,803Z" fill="#468177" stroke="#468177" stroke-width="1.51"></path><path d="M2324,1632L2428,1405L2017,1604Z" fill="#468177" stroke="#468177" stroke-width="1.51"></path><path d="M2088,1807L2324,1632L2017,1604Z" fill="#468177" stroke="#468177" stroke-width="1.51"></path></svg> 